HIERARCHY
ROOT joint_Root
{
	OFFSET 0.0 0.0 0.0
	CHANNELS 6 Xposition Yposition Zposition Zrotation Xrotation Yrotation 
	JOINT Hips
	{
		OFFSET 4.5925 91.4895 -427.239
		CHANNELS 6 Xposition Yposition Zposition Zrotation Xrotation Yrotation 
		JOINT Spine
		{
			OFFSET 15.7357 0.0 0.0
			CHANNELS 6 Xposition Yposition Zposition Zrotation Xrotation Yrotation 
			JOINT Chest
			{
				OFFSET 8.98455 -0.406207 0.0
				CHANNELS 6 Xposition Yposition Zposition Zrotation Xrotation Yrotation 
				JOINT Neck
				{
					OFFSET 16.3773 0.0 0.0
					CHANNELS 6 Xposition Yposition Zposition Zrotation Xrotation Yrotation 
					JOINT Head
					{
						OFFSET 6.45672 0.0 0.0
						CHANNELS 6 Xposition Yposition Zposition Zrotation Xrotation Yrotation 
						End Site
						{
							OFFSET 0.0 0.0 0.0
						}
					}
				}
				JOINT Shoulder_L
				{
					OFFSET 12.9942 -0.242716 4.98039
					CHANNELS 6 Xposition Yposition Zposition Zrotation Xrotation Yrotation 
					JOINT UpperArm_L
					{
						OFFSET 5.34809 0.0 0.0
						CHANNELS 6 Xposition Yposition Zposition Zrotation Xrotation Yrotation 
						JOINT LowerArm_L
						{
							OFFSET 24.3286 1.87007e-05 0.0
							CHANNELS 6 Xposition Yposition Zposition Zrotation Xrotation Yrotation 
							JOINT Hand_L
							{
								OFFSET 22.2916 0.0 0.0
								CHANNELS 6 Xposition Yposition Zposition Zrotation Xrotation Yrotation 
								End Site
								{
									OFFSET 0.0 0.0 0.0
								}
							}
						}
					}
				}
				JOINT Shoulder_R
				{
					OFFSET 12.9945 -0.242716 -4.98039
					CHANNELS 6 Xposition Yposition Zposition Zrotation Xrotation Yrotation 
					JOINT UpperArm_R
					{
						OFFSET -5.34813 0.0 0.0
						CHANNELS 6 Xposition Yposition Zposition Zrotation Xrotation Yrotation 
						JOINT LowerArm_R
						{
							OFFSET -24.3289 0.000322201 0.0
							CHANNELS 6 Xposition Yposition Zposition Zrotation Xrotation Yrotation 
							JOINT Hand_R
							{
								OFFSET -22.2915 -0.000108084 0.0
								CHANNELS 6 Xposition Yposition Zposition Zrotation Xrotation Yrotation 
								End Site
								{
									OFFSET 0.0 0.0 0.0
								}
							}
						}
					}
				}
			}
		}
		JOINT UpperLeg_L
		{
			OFFSET -2.19248 -6.46944 0.0
			CHANNELS 6 Xposition Yposition Zposition Zrotation Xrotation Yrotation 
			JOINT LowerLeg_L
			{
				OFFSET 39.0811 0.0 -1.23785e-05
				CHANNELS 6 Xposition Yposition Zposition Zrotation Xrotation Yrotation 
				JOINT Foot_L
				{
					OFFSET 40.9854 0.0 -1.26872e-05
					CHANNELS 6 Xposition Yposition Zposition Zrotation Xrotation Yrotation 
					JOINT Toes_L
					{
						OFFSET 11.7543 0.0 0.0
						CHANNELS 6 Xposition Yposition Zposition Zrotation Xrotation Yrotation 
						End Site
						{
							OFFSET 0.0 0.0 0.0
						}
					}
				}
			}
		}
		JOINT UpperLeg_R
		{
			OFFSET -2.19251 6.46944 0.0
			CHANNELS 6 Xposition Yposition Zposition Zrotation Xrotation Yrotation 
			JOINT LowerLeg_R
			{
				OFFSET -39.0811 -0.00228153 -0.0401928
				CHANNELS 6 Xposition Yposition Zposition Zrotation Xrotation Yrotation 
				JOINT Foot_R
				{
					OFFSET -40.9854 0.0 0.0
					CHANNELS 6 Xposition Yposition Zposition Zrotation Xrotation Yrotation 
					JOINT Toes_R
					{
						OFFSET -11.7543 0.0 0.0
						CHANNELS 6 Xposition Yposition Zposition Zrotation Xrotation Yrotation 
						End Site
						{
							OFFSET 0.0 0.0 0.0
						}
					}
				}
			}
		}
	}
}
MOTION
Frames:	5
Frame Time:	0.0333333
0.000000 0.000000 0.000000 0.000000 0.000000 -0.000000 -1.157530 82.745100 -3.290380 87.063700 -3.994480 9.455200 15.735700 0.000005 -0.000001 86.882200 81.681800 -86.284700 8.984550 -0.406207 -0.000000 8.851420 -0.894563 1.263370 16.377300 -0.000001 -0.000001 -2.368530 -0.281816 0.895332 6.456720 -0.000001 -0.000000 -2.004490 2.797650 -1.606670 12.994200 -0.242716 4.980390 -91.416900 4.657770 -73.058800 5.348090 -0.000007 -0.000001 -64.254700 29.435500 -8.603930 24.328600 0.000019 0.000005 13.836500 17.613000 -39.148100 22.291600 -0.000001 0.000005 12.475200 5.364210 -1.807590 12.994500 -0.242716 -4.980390 87.898300 9.688020 -77.697500 -5.348130 -0.000001 -0.000004 -59.947300 24.822400 -11.534400 -24.328900 0.000322 -0.000009 -2.252980 -3.954180 -29.693700 -22.291500 -0.000108 -0.000004 13.460300 5.409420 -3.231490 -2.192480 -6.469440 -0.000000 -171.475000 -11.650600 -17.589300 39.081100 -0.000007 -0.000012 -0.388210 0.209496 61.647600 40.985400 -0.000006 -0.000013 2.072100 7.317790 -84.283400 11.754300 -0.000000 0.000003 -0.000234 -0.002111 -16.656800 -2.192510 6.469440 -0.000001 -179.224000 10.421700 162.875000 -39.081100 -0.002282 -0.040193 0.061600 -0.033287 60.317800 -40.985400 0.000008 0.000006 8.018440 4.633660 -84.387400 -11.754300 -0.000006 -0.000006 -0.264502 -0.321033 -16.454400
0.000000 0.000000 0.000000 0.000000 0.000000 -0.000000 -1.612550 84.147400 -2.496740 86.386400 -2.344560 9.763350 15.735700 0.000005 -0.000001 85.241000 82.334800 -85.481000 8.984550 -0.406207 -0.000000 7.510180 -1.266440 -0.396383 16.377300 -0.000001 -0.000001 -1.507990 0.238091 0.649038 6.456720 -0.000001 -0.000000 -0.977381 3.016780 -0.751529 12.994200 -0.242716 4.980390 -91.305400 4.142600 -72.492300 5.348090 -0.000007 -0.000001 -66.664000 23.525600 -6.664640 24.328600 0.000019 0.000005 13.481000 18.909800 -36.489300 22.291600 -0.000001 0.000005 13.473600 5.275950 0.724523 12.994500 -0.242716 -4.980390 88.019100 8.872130 -77.359700 -5.348130 -0.000001 -0.000004 -60.552200 16.814300 -10.210300 -24.328900 0.000322 -0.000009 -2.595940 -4.155710 -32.016400 -22.291500 -0.000108 -0.000004 9.449660 5.370210 -1.991400 -2.192480 -6.469440 -0.000000 -170.121000 -11.939900 -14.900000 39.081100 -0.000007 -0.000012 -0.308782 0.195672 57.638900 40.985400 -0.000006 -0.000013 2.513210 9.487250 -82.762600 11.754300 -0.000000 0.000003 -0.000205 -0.001888 -16.648700 -2.192510 6.469440 -0.000001 -178.747000 12.285100 166.190000 -39.081100 -0.002282 -0.040193 0.061551 -0.039508 55.888600 -40.985400 0.000008 0.000006 8.128990 4.925470 -82.678900 -11.754300 -0.000006 -0.000006 -0.379056 -0.464340 -16.688400
0.000000 0.000000 0.000000 0.000000 0.000000 -0.000000 -1.923010 86.783200 -1.526280 85.859800 -0.222388 9.626270 15.735700 0.000005 -0.000001 81.892200 83.292700 -83.187400 8.984550 -0.406207 -0.000000 5.497020 -1.861910 -2.498230 16.377300 -0.000001 -0.000001 -0.100246 0.600621 0.346492 6.456720 -0.000001 -0.000000 -0.381332 2.986990 0.609896 12.994200 -0.242716 4.980390 -91.292300 3.849390 -71.426300 5.348090 -0.000007 -0.000001 -67.278000 20.535700 -4.827520 24.328600 0.000019 0.000005 8.248840 13.244200 -32.318800 22.291600 -0.000001 0.000005 15.221600 5.221950 2.162560 12.994500 -0.242716 -4.980390 88.163800 7.775590 -76.668600 -5.348130 -0.000001 -0.000004 -55.124400 11.393200 -12.033300 -24.328900 0.000322 -0.000009 -4.066610 -5.738660 -35.402000 -22.291500 -0.000108 -0.000004 8.754270 5.393730 -2.733490 -2.192480 -6.469440 -0.000000 -169.441000 -11.363900 -10.568800 39.081100 -0.000007 -0.000012 -0.192906 0.166336 49.230600 40.985400 -0.000006 -0.000013 2.325980 11.235100 -79.081500 11.754300 -0.000000 0.000003 -0.000143 -0.001393 -16.630600 -2.192510 6.469440 -0.000001 -178.862000 15.404800 171.312000 -39.081100 -0.002282 -0.040193 0.052834 -0.046068 47.100800 -40.985400 0.000008 0.000006 8.205840 6.632400 -78.526500 -11.754300 -0.000006 -0.000006 -0.517464 -0.635667 -17.350000
0.000000 0.000000 0.000000 0.000000 0.000000 -0.000000 -1.854370 89.433800 -0.861693 86.010300 0.777873 7.727990 15.735700 0.000005 -0.000001 79.171100 84.916700 -81.619900 8.984550 -0.406207 -0.000000 2.187010 -1.789580 -4.858880 16.377300 -0.000001 -0.000001 1.574230 1.172090 -0.063112 6.456720 -0.000001 -0.000000 0.339710 2.889990 1.628210 12.994200 -0.242716 4.980390 -91.002000 2.761670 -70.047300 5.348090 -0.000007 -0.000001 -67.904900 18.278600 -2.378750 24.328600 0.000019 0.000005 6.093360 10.414200 -30.564400 22.291600 -0.000001 0.000005 13.389400 5.228630 1.989030 12.994500 -0.242716 -4.980390 88.568800 5.929780 -76.403800 -5.348130 -0.000001 -0.000004 -46.781400 2.684410 -16.298700 -24.328900 0.000322 -0.000009 -5.518170 -7.113360 -37.951500 -22.291500 -0.000108 -0.000004 10.445000 5.411710 -3.318120 -2.192480 -6.469440 -0.000000 -170.145000 -11.408700 -7.171410 39.081100 -0.000007 -0.000012 -0.107961 0.133213 39.023200 40.985400 -0.000006 -0.000013 1.653750 11.891300 -74.260200 11.754300 -0.000000 0.000003 -0.000078 -0.000836 -16.609800 -2.192510 6.469440 -0.000001 -179.496000 18.598100 174.532000 -39.081100 -0.002282 -0.040193 0.038614 -0.045887 37.593200 -40.985400 0.000008 0.000006 7.743980 10.090900 -72.516000 -11.754300 -0.000006 -0.000006 -0.830524 -0.999202 -18.864700
0.000000 0.000000 0.000000 0.000000 0.000000 -0.000000 -1.495710 91.293600 -0.452625 85.833900 1.023680 5.944410 15.735700 0.000005 -0.000001 78.195400 86.263200 -81.263000 8.984550 -0.406207 -0.000000 -0.478043 -1.308070 -6.137520 16.377300 -0.000001 -0.000001 2.420810 1.641330 -0.820120 6.456720 -0.000001 -0.000000 0.784081 2.988590 1.636970 12.994200 -0.242716 4.980390 -90.874400 2.268420 -68.913700 5.348090 -0.000007 -0.000001 -67.493000 17.050900 0.275397 24.328600 0.000019 0.000005 7.798200 12.736600 -31.845700 22.291600 -0.000001 0.000005 10.272800 5.240230 1.689500 12.994500 -0.242716 -4.980390 89.143400 3.691370 -76.929300 -5.348130 -0.000001 -0.000004 -36.556000 -10.073100 -22.320400 -24.328900 0.000322 -0.000009 -10.317200 -13.079000 -38.813600 -22.291500 -0.000108 -0.000004 14.694600 5.435400 -4.113960 -2.192480 -6.469440 -0.000000 -170.796000 -10.856400 -4.359450 39.081100 -0.000007 -0.000012 -0.096974 0.166692 30.189200 40.985400 -0.000006 -0.000013 0.906678 11.271000 -70.065300 11.754300 -0.000000 0.000003 -0.000063 -0.000693 -16.604400 -2.192510 6.469440 -0.000001 179.922000 21.934800 176.504000 -39.081100 -0.002282 -0.040193 0.028829 -0.043114 30.630500 -40.985400 0.000008 0.000006 6.349080 14.670100 -67.634400 -11.754300 -0.000006 -0.000006 -0.006505 -0.075356 -19.640400
